<svg id="Layer_1" data-name="Layer 1" xmlns="http://www.w3.org/2000/svg" xmlns:xlink="http://www.w3.org/1999/xlink" viewBox="0 0 1493.02 493.83"><defs><style>.cls-1{fill:url(#linear-gradient);}.cls-2{fill:url(#linear-gradient-2);}.cls-3{fill:#814d2e;}.cls-4,.cls-6{fill:#382114;}.cls-5{fill:#a67744;}.cls-6{font-size:312.13px;font-family:MyriadPro-Bold, Myriad Pro;font-weight:700;}.cls-7{letter-spacing:-0.02em;}.cls-8{letter-spacing:0.02em;}.cls-9{letter-spacing:-0.01em;}</style><linearGradient id="linear-gradient" x1="24.97" y1="396.88" x2="376.07" y2="45.77" gradientUnits="userSpaceOnUse"><stop offset="0.04" stop-color="#52a943"/><stop offset="0.32" stop-color="#55ab43"/><stop offset="0.56" stop-color="#60af42"/><stop offset="0.78" stop-color="#71b741"/><stop offset="0.96" stop-color="#86c140"/></linearGradient><linearGradient id="linear-gradient-2" x1="78.49" y1="302.44" x2="456.45" y2="302.44" xlink:href="#linear-gradient"/></defs><path class="cls-1" d="M425.64,60.88a359.39,359.39,0,0,1-35,35.28A411.45,411.45,0,0,1,320,145.91C281.67,167.53,240.26,174.6,196.92,174c-25-.36-49.65-2.8-73-12.41-13.9-5.72-25.71-14.15-32.51-28.2-3.5-7.24-4.17-13.63,1.81-20.72,13.57-16.11,27.38-31.87,46.71-41.09,23.46-11.18,48.59-12.91,74-11,20.69,1.59,40.53,7.59,60.44,12.94,22.88,6.15,46.19,8.5,70,8-8.07-1.57-16.14-3.16-24.21-4.71C299.8,72.91,280.42,65.81,261,59c-27.62-9.74-56-10.73-84.87-7.63-25.17,2.7-49.37,8.91-72.23,19.53-19.77,9.19-37.68,21.36-51,39.21a167.25,167.25,0,0,0-31.76,77.22C9.17,270.36,31.22,342.44,93.18,400.55c19.23,18,42.12,30.34,66.82,39.25,28.86,10.43,58.72,13.7,89.18,12.7a2.5,2.5,0,0,1,2,.82c.38.45.4,1-1,1.18-30.28,4.73-60.71,6.46-91,1.46-55.2-9.11-99.41-35.49-128.24-84.86-17.5-30-26.35-62.51-29.53-97-3.24-35-.87-69.28,9.62-102.92,10-32.11,27.6-60,47.89-86.33C77.79,60.27,98,36.9,124.4,19.94,141,9.29,158.6,2.1,178.86.44c16.9-1.39,32.87.68,49.21,3.92,38.87,7.7,73.26,25.84,108,43.82,21.28,11,43.65,19.95,68.73,17.26A97.36,97.36,0,0,0,425.64,60.88Z"/><path class="cls-2" d="M390,126.63l17.2-15.58c63.55,79.29,72.19,211.59-13.52,305.58C308.5,510.07,170.07,516.7,78.49,447.3c2-1.33,3.67-.16,5.35.64,42.84,20.28,88.25,27,135,23.9,45.27-3,87.81-15.35,125-42.72,44.48-32.78,73.1-76.17,84-130.4,12.15-60.36.28-116.25-34.47-167.15Z"/><path class="cls-3" d="M376,322.65c.49,21.09-8.68,39.86-21,57.43-15.4,21.94-33.91,40.5-58,53-14,7.25-28.63,8.68-43.88,5.31-3.68-.81-7.47-1.21-11.06-2.31-7.43-2.26-9.82-8.11-6.55-15.12a46.33,46.33,0,0,1,10.91-14.2c35.06-32.44,65.38-69.08,94.61-106.71a98.06,98.06,0,0,1,8.45-9.43c6.46-6.41,12.07-6.14,18.1.85C375.12,300.11,376.24,310.65,376,322.65Z"/><path class="cls-4" d="M145.26,274c-1.6,12.69,1.34,24.09,8.61,34.72,11.58,16.91,16.62,36,17.67,56.38.87,16.88,4.65,32.91,15.77,46.44,2.74,3.35,6.67,7.54,3.84,11.82-3,4.51-8.75,2.42-13,1.43-40.23-9.48-76.6-41.62-80.59-90.36-2.35-28.69.54-56.35,14.88-82,2.94-5.26,6.28-10.27,10.82-14.27,6.54-5.77,11.91-4.73,16.18,2.9C145.24,251.37,146.59,262.44,145.26,274Z"/><path class="cls-5" d="M237,343.22c-1.86,23.22-4.46,47.33-21.31,67-9,10.48-15,9.78-21.54-2.49a86.21,86.21,0,0,1-10.43-40.32c-.21-22-5.84-42.15-17.77-60.59a55.3,55.3,0,0,1-9.2-32.9,54.39,54.39,0,0,0-9.74-34,21.3,21.3,0,0,1-2.05-3.43c-2.82-6.27-.87-9.67,6-9.33A61.88,61.88,0,0,1,186,240.07C219.3,265.75,235.82,300.09,237,343.22Z"/><path class="cls-4" d="M233.44,406.39c16-33.88,19.53-68.54,9-104.39-1.19-4.07-.71-6.65,2.93-9.54,19.91-15.85,42.17-25.91,67.53-28.84a51,51,0,0,1,20.48,1.54c10.07,3,12.82,10.24,8.07,19.58-3.53,6.94-9.38,11.9-14.75,17.13a790.08,790.08,0,0,0-87.16,99.79C238.15,403.55,237.38,406.88,233.44,406.39Z"/><path class="cls-3" d="M252.58,274.56c2.95-31.58,1.83-61.8-1.19-92.47,16.44-3.35,32.5-6.47,47.87-13.7,7.62,10.18,11.93,21.72,14.63,33.87a113.41,113.41,0,0,1,.23,46.38c-.51,2.67-.84,5.5-4.89,6C289.38,256.9,271.17,264.19,252.58,274.56Z"/><path class="cls-4" d="M240.57,182.94c1.23,8.39-.64,16.3-1.1,24.22-1.38,23.63-.2,47.16,1.47,70.7.22,3.08.7,6.43-4.28,7.14-5-9.15-9.71-18.62-16.29-27-12.78-16.21-26.76-30.88-47-37.64-2.22-.74-3-2-2.76-4.48a117.61,117.61,0,0,1,5.82-26.55c.94-2.76,2-4.27,5.58-4.11C201.47,186.13,221,186.09,240.57,182.94Z"/><text class="cls-6" transform="translate(498.28 357.72)"><tspan class="cls-7">C</tspan><tspan class="cls-8" x="179.78" y="0">o</tspan><tspan x="364.87" y="0">-</tspan><tspan class="cls-9" x="465.37" y="0">ff</tspan><tspan x="665.14" y="0">ee</tspan></text></svg>